<?xml version="1.0" encoding="UTF-8"?>
<svg width="100px" height="32px" viewBox="0 0 100 32" version="1.1" xmlns="http://www.w3.org/2000/svg" xmlns:xlink="http://www.w3.org/1999/xlink">
    <!-- Generator: Sketch 56.2 (81672) - https://sketch.com -->
    <title>logo-justa-color</title>
    <desc>Created with Sketch.</desc>
    <defs>
        <linearGradient x1="49.6217949%" y1="99.7602564%" x2="49.6217949%" y2="-0.996153846%" id="linearGradient-1">
            <stop stop-color="#00617D" offset="10%"></stop>
            <stop stop-color="#076E95" offset="100%"></stop>
        </linearGradient>
        <linearGradient x1="50.1724267%" y1="100.229101%" x2="50.1724267%" y2="0.124867725%" id="linearGradient-2">
            <stop stop-color="#00617D" offset="10%"></stop>
            <stop stop-color="#076E95" offset="100%"></stop>
        </linearGradient>
        <linearGradient x1="50.2486202%" y1="99.6756477%" x2="50.2486202%" y2="0.250259067%" id="linearGradient-3">
            <stop stop-color="#00617D" offset="10%"></stop>
            <stop stop-color="#076E95" offset="100%"></stop>
        </linearGradient>
        <linearGradient x1="50.1629283%" y1="99.7020576%" x2="50.1629283%" y2="-0.0324966255%" id="linearGradient-4">
            <stop stop-color="#00617D" offset="10%"></stop>
            <stop stop-color="#076E95" offset="100%"></stop>
        </linearGradient>
        <linearGradient x1="47.7228855%" y1="100.160769%" x2="47.7228855%" y2="0.787692308%" id="linearGradient-5">
            <stop stop-color="#00617D" offset="10%"></stop>
            <stop stop-color="#076E95" offset="100%"></stop>
        </linearGradient>
        <linearGradient x1="49.9170815%" y1="100.029478%" x2="49.9170815%" y2="0.0373134328%" id="linearGradient-6">
            <stop stop-color="#00617D" offset="10%"></stop>
            <stop stop-color="#076E95" offset="100%"></stop>
        </linearGradient>
    </defs>
    <g id="Page-1" stroke="none" stroke-width="1" fill="none" fill-rule="evenodd">
        <g id="jogo_justa_color" transform="translate(-14.000000, -110.000000)" fill-rule="nonzero">
            <g id="logo-justa-color" transform="translate(13.000000, 110.000000)">
                <g id="justa-icon" transform="translate(93.000000, 15.000000)">
                    <circle id="Oval" fill="url(#linearGradient-1)" cx="4.1" cy="4.8" r="3.9"></circle>
                    <g id="Group" transform="translate(1.000000, 2.000000)" fill="#FFFFFF">
                        <path d="M3.3,5.4 L2.6,5.4 C2.5,5.4 2.4,5.3 2.4,5.1 L3.6,0.2 C3.6,0.1 3.7,-3.55271368e-15 3.8,-3.55271368e-15 L4.5,-3.55271368e-15 C4.6,-3.55271368e-15 4.7,0.1 4.7,0.3 L3.5,5.2 C3.5,5.3 3.4,5.4 3.3,5.4 Z" id="Path"></path>
                        <path d="M2.1,5.2 C2.1,5.2 2.4,3.9 2.5,3.8 L2,3.2 C2,3.1 1.9,3.1 1.9,3.1 L0.9,3.1 C0.8,3.1 0.7,3.2 0.7,3.3" id="Path"></path>
                    </g>
                </g>
                <g id="justa-name">
                    <path d="M7.1,19.6 L1.9,19.6 C1.2,19.6 0.7,20.1 1.2,20.8 C1.2,20.8 1.2,20.8 1.2,20.8 L8,31 L9.8,23.6 L7.1,19.6 Z" id="Path" fill="#626262"></path>
                    <g id="Group" transform="translate(9.000000, 0.000000)">
                        <path d="M25.5,5.3 L22.6,18.3 C21.4,19.3 20.2,19.8 18.8,19.8 C18.1,19.8 17.7,19.7 17.5,19.4 C17.3,19.1 17.3,18.9 17.3,18.5 C17.3,18.2 17.4,17.9 17.4,17.6 L20.2,5.3 L14.4,5.3 L11.6,17.5 C11.4,18.2 11.3,19 11.2,19.9 C11.1,20.8 11.2,21.6 11.5,22.3 C11.7,22.9 12.2,23.4 12.9,23.7 C13.6,24.1 14.5,24.2 15.7,24.2 C16.9,24.2 17.9,24 18.8,23.7 C19.7,23.3 20.6,22.8 21.6,22 L22.2,23.9 L27,23.9 L31.2,5.3 L25.5,5.3 Z" id="Path" fill="url(#linearGradient-2)"></path>
                        <path d="M78.7,5.4 C77.2,5.1 75.7,4.9 74.3,4.9 C72.9,4.9 71.7,5 70.6,5.3 C70,5.4 69.5,5.6 69,5.8 C68.6,6 68.1,6.4 67.5,6.8 C67,7.2 66.5,7.7 66.1,8.3 C65.7,8.9 65.3,9.6 64.9,10.4 C64.5,11.3 64.1,12.3 63.8,13.6 C63.5,14.9 63.2,16.2 63.1,17.6 C63,19 63.2,20.3 63.7,21.4 C64.6,23.3 65.9,24.2 67.8,24.2 C68.9,24.2 69.9,24 71,23.6 C72,23.2 72.8,22.7 73.3,22.1 L74,23.9 L78.5,23.9 L82.1,7.1 C81.4,6.4 80.3,5.8 78.7,5.4 Z M74.1,17.6 C73.3,18.8 72.2,19.4 70.6,19.4 C69.4,19.4 68.9,18.6 69,17 C69.1,16.3 69.2,15.2 69.5,13.9 C69.7,12.7 70.1,11.8 70.5,11.2 C70.7,10.9 70.9,10.6 71,10.4 C71.2,10.2 71.4,10 71.6,9.9 C71.8,9.8 72.1,9.7 72.2,9.6 C72.4,9.5 72.6,9.5 72.9,9.4 C73.2,9.3 73.6,9.3 74.2,9.3 C74.7,9.3 75.3,9.4 75.8,9.7 L74.1,17.6 Z" id="Shape" fill="url(#linearGradient-3)"></path>
                        <path d="M63.2,5.1 L59.6,5.1 L60.7,0.1 L55.9,0.1 L53.9,5.1 L41.5,5.1 L41.5,5.1 C40.9,5.1 40.2,5.1 39.4,5.1 C37.6,5.1 36.2,5.5 35.3,6.3 C34.4,7.1 33.7,8.2 33.3,9.8 L32.9,11.4 C32.8,11.8 32.8,12.3 32.7,12.8 C32.7,13.3 32.7,13.9 32.9,14.4 C33.4,16.2 34.8,17 37.1,17 L40.9,17 C41.2,17 41.4,17 41.6,17.1 C41.8,17.2 41.8,17.5 41.7,17.9 L41.6,18.5 C41.4,19.1 41,19.4 40.4,19.4 L31.9,19.4 L31.1,23 C31.5,23.4 32.4,23.7 34,23.9 C34.6,24 35.4,24.1 36.4,24.2 C37.4,24.2 38.2,24.4 38.9,24.4 C39.6,24.4 40.5,24.4 41.6,24.4 C42.8,24.4 43.8,24.1 44.8,23.6 C46,23 46.8,21.7 47.2,19.9 L47.7,17.8 C47.8,17.4 47.8,17 47.8,16.7 C47.9,15.7 47.7,14.8 47.2,14 C46.5,12.9 45.4,12.4 43.6,12.4 L39.6,12.4 C39.4,12.4 39.3,12.4 39.3,12.4 C39.3,12.4 39.2,12.4 39.1,12.4 C39,12.4 39,12.4 38.9,12.4 C38.9,12.4 38.8,12.4 38.8,12.4 C38.7,12.4 38.7,12.4 38.7,12.3 C38.7,12.3 38.6,12.2 38.6,12.1 C38.5,12 38.6,11.8 38.7,11.5 L38.8,10.9 C38.9,10.5 39,10.4 39.2,10.2 C39.4,10 39.7,10 40.2,10 L42.4,10 L48.3,10 L62.1,10 L63.2,5.1 L63.2,5.1 Z" id="Path" fill="url(#linearGradient-4)"></path>
                        <path d="M57,19.3 C56.9,19.1 56.8,18.9 56.8,18.5 C56.8,18.2 56.8,17.9 56.8,17.5 C56.8,17.2 56.9,16.8 57.1,16.2 L58.3,11.2 L52.6,11.2 L51.2,17.2 C51,17.9 50.9,18.5 50.9,19.1 C50.8,20.5 51,21.6 51.6,22.4 C52.4,23.5 53.6,24.2 55.2,24.2 L59,24.2 L59.8,20.6 C59.7,20.6 59.3,20.4 58.6,20.1 C57.6,19.8 57.2,19.5 57,19.3 Z" id="Path" fill="url(#linearGradient-5)"></path>
                        <path d="M10.6,5.1 L7.1,5.1 C6.6,5.1 6.2,5.4 6.1,5.9 L0.1,30.6 C-0.1,31.3 0.4,31.9 1.1,31.9 L4.6,31.9 C5.1,31.9 5.5,31.5 5.6,31.1 L11.6,6.4 C11.7,5.7 11.2,5.1 10.6,5.1 Z" id="Path" fill="url(#linearGradient-6)"></path>
                    </g>
                </g>
            </g>
        </g>
    </g>
</svg>