<svg width="470" height="150" viewBox="0 0 470 150" fill="none" xmlns="http://www.w3.org/2000/svg">
<rect width="470" height="150" fill="white"/>
<g opacity="0.1">
<path d="M418.5 113C438.658 113 455 95.9868 455 75C455 54.0132 438.658 37 418.5 37C398.342 37 382 54.0132 382 75C382 95.9868 398.342 113 418.5 113Z" fill="#909090"/>
<path d="M420.522 100.333H413.945C413.005 100.333 412.066 99.359 412.066 97.4103L423.341 49.6667C423.341 48.6923 424.28 47.718 425.22 47.718H431.797C432.736 47.718 433.676 48.6923 433.676 50.641L422.401 98.3846C422.401 99.359 421.462 100.333 420.522 100.333Z" fill="white"/>
<path d="M409.247 98.3846C409.247 98.3846 412.066 85.7179 413.005 84.7436L408.308 78.8974C408.308 77.9231 407.368 77.9231 407.368 77.9231H397.973C397.033 77.9231 396.093 78.8974 396.093 79.8718" fill="white"/>
</g>
<path d="M42.44 62.088V60.12H46.28V57.84C46.28 56.784 46.608 55.96 47.264 55.368C47.92 54.776 48.824 54.48 49.976 54.48H53.84V56.448H49.976C48.952 56.448 48.44 56.912 48.44 57.84V60.12H53.84V62.088H48.44V72H46.28V62.088H42.44ZM57.6706 72V70.032H62.4706V60.768H58.2706V58.8H64.6306V70.032H68.5906V72H57.6706ZM62.9506 53.64H63.4306C63.8946 53.64 64.2706 53.776 64.5586 54.048C64.8466 54.32 64.9906 54.672 64.9906 55.104C64.9906 55.536 64.8466 55.88 64.5586 56.136C64.2706 56.392 63.8946 56.52 63.4306 56.52H62.9506C62.4866 56.52 62.1106 56.4 61.8226 56.16C61.5346 55.904 61.3906 55.552 61.3906 55.104C61.3906 54.672 61.5346 54.32 61.8226 54.048C62.1106 53.776 62.4866 53.64 62.9506 53.64ZM76.9813 72.24C75.3333 72.24 74.0373 71.792 73.0933 70.896C72.1653 70 71.7013 68.768 71.7013 67.2V63.6C71.7013 62.032 72.1653 60.8 73.0933 59.904C74.0373 59.008 75.3333 58.56 76.9813 58.56C78.6293 58.56 79.9173 59.008 80.8453 59.904C81.7893 60.8 82.2613 62.032 82.2613 63.6V66.024H73.8613V67.08C73.8613 68.088 74.1333 68.88 74.6773 69.456C75.2373 70.032 76.0053 70.32 76.9813 70.32C77.7013 70.32 78.3253 70.208 78.8533 69.984C79.3813 69.76 79.7733 69.432 80.0293 69H82.1893C81.9173 70.008 81.3093 70.8 80.3653 71.376C79.4373 71.952 78.3093 72.24 76.9813 72.24ZM80.1013 64.224V63.6C80.1013 62.608 79.8293 61.84 79.2853 61.296C78.7413 60.752 77.9733 60.48 76.9813 60.48C75.9893 60.48 75.2213 60.752 74.6773 61.296C74.1333 61.84 73.8613 62.608 73.8613 63.6V64.224H80.1013ZM91.6599 54.48V68.16C91.6599 68.752 91.8199 69.216 92.1399 69.552C92.4599 69.872 92.8999 70.032 93.4599 70.032H97.3719V72H93.4599C92.2279 72 91.2599 71.664 90.5559 70.992C89.8519 70.304 89.4999 69.36 89.4999 68.16V56.448H85.1319V54.48H91.6599ZM100.483 63.72C100.483 62.92 100.587 62.2 100.795 61.56C101.019 60.92 101.323 60.384 101.707 59.952C102.091 59.504 102.555 59.16 103.099 58.92C103.643 58.68 104.251 58.56 104.923 58.56C105.899 58.56 106.707 58.784 107.347 59.232C107.987 59.664 108.411 60.28 108.619 61.08H108.811C108.795 60.808 108.779 60.536 108.763 60.264C108.731 60.024 108.707 59.776 108.691 59.52C108.691 59.248 108.691 59.008 108.691 58.8V54.48H110.851V72H108.811V69.72H108.619C108.411 70.52 107.987 71.144 107.347 71.592C106.707 72.024 105.899 72.24 104.923 72.24C104.251 72.24 103.643 72.12 103.099 71.88C102.555 71.64 102.091 71.304 101.707 70.872C101.323 70.424 101.019 69.88 100.795 69.24C100.587 68.6 100.483 67.88 100.483 67.08V63.72ZM105.739 70.368C106.635 70.368 107.347 70.072 107.875 69.48C108.419 68.888 108.691 68.088 108.691 67.08V63.72C108.691 62.712 108.419 61.912 107.875 61.32C107.347 60.728 106.635 60.432 105.739 60.432C104.763 60.432 104.003 60.72 103.459 61.296C102.915 61.872 102.643 62.68 102.643 63.72V67.08C102.643 68.088 102.915 68.888 103.459 69.48C104.019 70.072 104.779 70.368 105.739 70.368ZM118.185 70.296C118.185 69.72 118.369 69.256 118.737 68.904C119.105 68.536 119.577 68.352 120.153 68.352C120.729 68.352 121.201 68.536 121.569 68.904C121.937 69.256 122.121 69.72 122.121 70.296C122.121 70.872 121.937 71.344 121.569 71.712C121.201 72.064 120.729 72.24 120.153 72.24C119.577 72.24 119.105 72.064 118.737 71.712C118.369 71.344 118.185 70.872 118.185 70.296ZM118.185 60.504C118.185 59.928 118.369 59.464 118.737 59.112C119.105 58.744 119.577 58.56 120.153 58.56C120.729 58.56 121.201 58.744 121.569 59.112C121.937 59.464 122.121 59.928 122.121 60.504C122.121 61.08 121.937 61.552 121.569 61.92C121.201 62.272 120.729 62.448 120.153 62.448C119.577 62.448 119.105 62.272 118.737 61.92C118.369 61.552 118.185 61.08 118.185 60.504ZM146.774 74.64V52.08H152.654V54H148.934V72.72H152.654V74.64H146.774Z" fill="#919191"/>
<path d="M162.029 54.48H164.357V58.08L164.093 61.68H162.317L162.029 58.08V54.48ZM176.42 54.48H178.748V58.08L178.484 61.68H176.708L176.42 58.08V54.48ZM193.906 68.376L190.786 75.84H188.866L190.786 68.376H193.906ZM261.995 70.104C261.995 69.48 262.179 68.984 262.547 68.616C262.931 68.232 263.435 68.04 264.059 68.04C264.683 68.04 265.179 68.232 265.547 68.616C265.931 68.984 266.123 69.48 266.123 70.104C266.123 70.744 265.931 71.264 265.547 71.664C265.179 72.048 264.683 72.24 264.059 72.24C263.435 72.24 262.931 72.048 262.547 71.664C262.179 71.264 261.995 70.744 261.995 70.104ZM272.306 54.72H274.61L277.922 68.232C278.002 68.568 278.074 68.88 278.138 69.168C278.202 69.44 278.25 69.68 278.282 69.888C278.314 70.144 278.346 70.368 278.378 70.56H278.474C278.506 70.368 278.546 70.144 278.594 69.888C278.626 69.68 278.674 69.44 278.738 69.168C278.802 68.88 278.874 68.568 278.954 68.232L282.338 54.72H284.594L279.89 72H276.866L272.306 54.72ZM287.153 68.16C287.153 67.536 287.257 66.976 287.465 66.48C287.689 65.968 288.001 65.536 288.401 65.184C288.817 64.832 289.313 64.56 289.889 64.368C290.465 64.176 291.113 64.08 291.833 64.08H295.769V63C295.769 62.184 295.497 61.552 294.953 61.104C294.425 60.64 293.657 60.408 292.649 60.408C291.913 60.408 291.281 60.544 290.753 60.816C290.241 61.088 289.897 61.464 289.721 61.944H287.561C287.785 60.904 288.353 60.08 289.265 59.472C290.193 58.864 291.337 58.56 292.697 58.56C294.329 58.56 295.609 58.944 296.537 59.712C297.465 60.464 297.929 61.52 297.929 62.88V72H295.961V69.48H295.769C295.561 70.328 295.073 71 294.305 71.496C293.537 71.992 292.601 72.24 291.497 72.24C290.169 72.24 289.113 71.872 288.329 71.136C287.545 70.4 287.153 69.408 287.153 68.16ZM291.977 70.464C292.521 70.464 293.025 70.392 293.489 70.248C293.953 70.104 294.353 69.904 294.689 69.648C295.025 69.376 295.289 69.064 295.481 68.712C295.673 68.36 295.769 67.976 295.769 67.56V65.76H291.881C291.081 65.76 290.449 65.968 289.985 66.384C289.537 66.8 289.313 67.376 289.313 68.112C289.313 68.848 289.545 69.424 290.009 69.84C290.473 70.256 291.129 70.464 291.977 70.464ZM307.519 54.48V68.16C307.519 68.752 307.679 69.216 307.999 69.552C308.319 69.872 308.759 70.032 309.319 70.032H313.231V72H309.319C308.087 72 307.119 71.664 306.415 70.992C305.711 70.304 305.359 69.36 305.359 68.16V56.448H300.991V54.48H307.519ZM316.702 72V70.032H321.502V60.768H317.302V58.8H323.662V70.032H327.622V72H316.702ZM321.982 53.64H322.462C322.926 53.64 323.302 53.776 323.59 54.048C323.878 54.32 324.022 54.672 324.022 55.104C324.022 55.536 323.878 55.88 323.59 56.136C323.302 56.392 322.926 56.52 322.462 56.52H321.982C321.518 56.52 321.142 56.4 320.854 56.16C320.566 55.904 320.422 55.552 320.422 55.104C320.422 54.672 320.566 54.32 320.854 54.048C321.142 53.776 321.518 53.64 321.982 53.64ZM330.733 63.72C330.733 62.92 330.837 62.2 331.045 61.56C331.269 60.92 331.573 60.384 331.957 59.952C332.341 59.504 332.805 59.16 333.349 58.92C333.893 58.68 334.501 58.56 335.173 58.56C336.149 58.56 336.957 58.784 337.597 59.232C338.237 59.664 338.661 60.28 338.869 61.08H339.061C339.045 60.808 339.029 60.536 339.013 60.264C338.981 60.024 338.957 59.776 338.941 59.52C338.941 59.248 338.941 59.008 338.941 58.8V54.48H341.101V72H339.061V69.72H338.869C338.661 70.52 338.237 71.144 337.597 71.592C336.957 72.024 336.149 72.24 335.173 72.24C334.501 72.24 333.893 72.12 333.349 71.88C332.805 71.64 332.341 71.304 331.957 70.872C331.573 70.424 331.269 69.88 331.045 69.24C330.837 68.6 330.733 67.88 330.733 67.08V63.72ZM335.989 70.368C336.885 70.368 337.597 70.072 338.125 69.48C338.669 68.888 338.941 68.088 338.941 67.08V63.72C338.941 62.712 338.669 61.912 338.125 61.32C337.597 60.728 336.885 60.432 335.989 60.432C335.013 60.432 334.253 60.72 333.709 61.296C333.165 61.872 332.893 62.68 332.893 63.72V67.08C332.893 68.088 333.165 68.888 333.709 69.48C334.269 70.072 335.029 70.368 335.989 70.368ZM344.715 68.16C344.715 67.536 344.819 66.976 345.027 66.48C345.251 65.968 345.563 65.536 345.963 65.184C346.379 64.832 346.875 64.56 347.451 64.368C348.027 64.176 348.675 64.08 349.395 64.08H353.331V63C353.331 62.184 353.059 61.552 352.515 61.104C351.987 60.64 351.219 60.408 350.211 60.408C349.475 60.408 348.843 60.544 348.315 60.816C347.803 61.088 347.459 61.464 347.283 61.944H345.123C345.347 60.904 345.915 60.08 346.827 59.472C347.755 58.864 348.899 58.56 350.259 58.56C351.891 58.56 353.171 58.944 354.099 59.712C355.027 60.464 355.491 61.52 355.491 62.88V72H353.523V69.48H353.331C353.123 70.328 352.635 71 351.867 71.496C351.099 71.992 350.163 72.24 349.059 72.24C347.731 72.24 346.675 71.872 345.891 71.136C345.107 70.4 344.715 69.408 344.715 68.16ZM349.539 70.464C350.083 70.464 350.587 70.392 351.051 70.248C351.515 70.104 351.915 69.904 352.251 69.648C352.587 69.376 352.851 69.064 353.043 68.712C353.235 68.36 353.331 67.976 353.331 67.56V65.76H349.443C348.643 65.76 348.011 65.968 347.547 66.384C347.099 66.8 346.875 67.376 346.875 68.112C346.875 68.848 347.107 69.424 347.571 69.84C348.035 70.256 348.691 70.464 349.539 70.464ZM359.034 58.8H362.874V54.72H365.034V58.8H370.194V60.768H365.034V68.592C365.034 69.04 365.17 69.392 365.442 69.648C365.73 69.904 366.114 70.032 366.594 70.032H369.954V72H366.594C365.458 72 364.554 71.688 363.882 71.064C363.21 70.44 362.874 69.616 362.874 68.592V60.768H359.034V58.8ZM376.064 67.08C376.064 68.088 376.336 68.88 376.88 69.456C377.44 70.032 378.208 70.32 379.184 70.32C380.144 70.32 380.904 70.032 381.464 69.456C382.024 68.88 382.304 68.088 382.304 67.08V63.72C382.304 62.712 382.024 61.92 381.464 61.344C380.904 60.768 380.144 60.48 379.184 60.48C378.224 60.48 377.464 60.768 376.904 61.344C376.344 61.92 376.064 62.712 376.064 63.72V67.08ZM373.904 63.72C373.904 62.92 374.024 62.208 374.264 61.584C374.52 60.944 374.872 60.4 375.32 59.952C375.784 59.504 376.336 59.16 376.976 58.92C377.632 58.68 378.368 58.56 379.184 58.56C380.816 58.56 382.104 59.016 383.048 59.928C383.992 60.84 384.464 62.096 384.464 63.696V67.08C384.464 67.88 384.344 68.6 384.104 69.24C383.864 69.88 383.512 70.424 383.048 70.872C382.6 71.304 382.048 71.64 381.392 71.88C380.736 72.12 380 72.24 379.184 72.24C378.368 72.24 377.632 72.12 376.976 71.88C376.336 71.64 375.784 71.296 375.32 70.848C374.872 70.4 374.52 69.856 374.264 69.216C374.024 68.576 373.904 67.864 373.904 67.08V63.72ZM389.063 58.8H391.103V61.08H391.295C391.503 60.296 391.935 59.68 392.591 59.232C393.247 58.784 394.055 58.56 395.015 58.56C396.407 58.56 397.495 59 398.279 59.88C399.079 60.744 399.479 61.936 399.479 63.456V64.2H397.319V63.72C397.319 62.68 397.055 61.88 396.527 61.32C396.015 60.744 395.279 60.456 394.319 60.456C393.375 60.456 392.623 60.752 392.063 61.344C391.503 61.92 391.223 62.712 391.223 63.72V72H389.063V58.8ZM407.606 72.24C406.214 72.24 405.062 71.928 404.15 71.304C403.254 70.664 402.742 69.816 402.614 68.76H404.894C404.99 69.224 405.286 69.6 405.782 69.888C406.278 70.176 406.886 70.32 407.606 70.32H408.278C409.142 70.32 409.814 70.144 410.294 69.792C410.774 69.424 411.014 68.936 411.014 68.328C411.014 67.288 410.278 66.656 408.806 66.432L406.814 66.144C405.518 65.952 404.55 65.544 403.91 64.92C403.27 64.296 402.95 63.424 402.95 62.304C402.95 61.12 403.366 60.2 404.198 59.544C405.046 58.888 406.222 58.56 407.726 58.56H408.398C409.038 58.56 409.63 58.64 410.174 58.8C410.718 58.96 411.198 59.192 411.614 59.496C412.03 59.784 412.366 60.136 412.622 60.552C412.894 60.952 413.07 61.4 413.15 61.896H410.87C410.774 61.48 410.502 61.144 410.054 60.888C409.606 60.616 409.054 60.48 408.398 60.48H407.726C406.91 60.48 406.27 60.64 405.806 60.96C405.358 61.28 405.134 61.76 405.134 62.4C405.134 62.912 405.286 63.304 405.59 63.576C405.91 63.832 406.422 64.008 407.126 64.104L409.118 64.392C410.542 64.6 411.574 65.016 412.214 65.64C412.87 66.264 413.198 67.152 413.198 68.304C413.198 69.536 412.766 70.504 411.902 71.208C411.054 71.896 409.846 72.24 408.278 72.24H407.606Z" fill="black"/>
<path d="M220.168 70.32C221.192 70.32 222.008 70.032 222.616 69.456C223.224 68.864 223.528 68.072 223.528 67.08V56.64H216.808V54.72H225.688V67.08C225.688 67.864 225.56 68.576 225.304 69.216C225.048 69.856 224.68 70.4 224.2 70.848C223.72 71.296 223.136 71.64 222.448 71.88C221.776 72.12 221.016 72.24 220.168 72.24C219.464 72.24 218.808 72.136 218.2 71.928C217.592 71.72 217.048 71.424 216.568 71.04C216.104 70.64 215.712 70.168 215.392 69.624C215.088 69.08 214.88 68.472 214.768 67.8H216.928C217.072 68.568 217.44 69.184 218.032 69.648C218.624 70.096 219.336 70.32 220.168 70.32ZM235.278 72.24C234.494 72.24 233.766 72.136 233.094 71.928C232.422 71.704 231.838 71.392 231.342 70.992C230.862 70.576 230.478 70.08 230.19 69.504C229.918 68.928 229.774 68.28 229.758 67.56H232.038C232.038 67.976 232.118 68.352 232.278 68.688C232.454 69.024 232.694 69.312 232.998 69.552C233.302 69.792 233.654 69.984 234.054 70.128C234.454 70.256 234.878 70.32 235.326 70.32C236.334 70.32 237.134 70.088 237.726 69.624C238.318 69.144 238.614 68.496 238.614 67.68C238.614 66.992 238.398 66.384 237.966 65.856C237.534 65.312 236.91 64.888 236.094 64.584L234.27 63.912C231.598 62.936 230.262 61.32 230.262 59.064C230.262 57.624 230.718 56.504 231.63 55.704C232.542 54.888 233.798 54.48 235.398 54.48C236.15 54.48 236.838 54.584 237.462 54.792C238.086 55 238.622 55.304 239.07 55.704C239.534 56.104 239.894 56.592 240.15 57.168C240.422 57.728 240.566 58.36 240.582 59.064H238.302C238.302 58.664 238.222 58.304 238.062 57.984C237.902 57.648 237.686 57.368 237.414 57.144C237.158 56.904 236.854 56.72 236.502 56.592C236.15 56.464 235.774 56.4 235.374 56.4C234.462 56.4 233.742 56.616 233.214 57.048C232.702 57.48 232.446 58.064 232.446 58.8C232.446 59.52 232.638 60.12 233.022 60.6C233.422 61.064 234.062 61.456 234.942 61.776L236.862 62.472C238.142 62.936 239.118 63.608 239.79 64.488C240.462 65.368 240.798 66.408 240.798 67.608C240.798 69.048 240.302 70.184 239.31 71.016C238.334 71.832 236.99 72.24 235.278 72.24ZM243.549 54.72H255.789V56.616H250.773V72H248.565V56.616H243.549V54.72Z" fill="#076E95"/>
<path d="M418.756 74.64V72.72H422.476V54H418.756V52.08H424.636V74.64H418.756Z" fill="#909090"/>
<path d="M46.693 95.24C46.693 94.954 46.7407 94.6973 46.836 94.47C46.9387 94.2353 47.0817 94.0373 47.265 93.876C47.4557 93.7147 47.683 93.59 47.947 93.502C48.211 93.414 48.508 93.37 48.838 93.37H50.642V92.875C50.642 92.501 50.5173 92.2113 50.268 92.006C50.026 91.7933 49.674 91.687 49.212 91.687C48.8747 91.687 48.585 91.7493 48.343 91.874C48.1083 91.9987 47.9507 92.171 47.87 92.391H46.88C46.9827 91.9143 47.243 91.5367 47.661 91.258C48.0863 90.9793 48.6107 90.84 49.234 90.84C49.982 90.84 50.5687 91.016 50.994 91.368C51.4193 91.7127 51.632 92.1967 51.632 92.82V97H50.73V95.845H50.642C50.5467 96.2337 50.323 96.5417 49.971 96.769C49.619 96.9963 49.19 97.11 48.684 97.11C48.0753 97.11 47.5913 96.9413 47.232 96.604C46.8727 96.2667 46.693 95.812 46.693 95.24ZM48.904 96.296C49.1533 96.296 49.3843 96.263 49.597 96.197C49.8097 96.131 49.993 96.0393 50.147 95.922C50.301 95.7973 50.422 95.6543 50.51 95.493C50.598 95.3317 50.642 95.1557 50.642 94.965V94.14H48.86C48.4933 94.14 48.2037 94.2353 47.991 94.426C47.7857 94.6167 47.683 94.8807 47.683 95.218C47.683 95.5553 47.7893 95.8193 48.002 96.01C48.2147 96.2007 48.5153 96.296 48.904 96.296ZM63.1294 97.11C62.7554 97.11 62.4181 97.055 62.1174 96.945C61.8241 96.835 61.5711 96.6773 61.3584 96.472C61.1531 96.2667 60.9917 96.0173 60.8744 95.724C60.7644 95.4307 60.7094 95.1043 60.7094 94.745V93.205C60.7094 92.8457 60.7644 92.5193 60.8744 92.226C60.9917 91.9327 61.1531 91.6833 61.3584 91.478C61.5711 91.2727 61.8241 91.115 62.1174 91.005C62.4181 90.895 62.7554 90.84 63.1294 90.84C63.7967 90.84 64.3431 91.0233 64.7684 91.39C65.2011 91.7493 65.4614 92.2443 65.5494 92.875H64.5594C64.5081 92.523 64.3504 92.2443 64.0864 92.039C63.8297 91.8263 63.5107 91.72 63.1294 91.72C62.6894 91.72 62.3411 91.852 62.0844 92.116C61.8277 92.38 61.6994 92.743 61.6994 93.205V94.745C61.6994 95.207 61.8241 95.57 62.0734 95.834C62.3301 96.098 62.6821 96.23 63.1294 96.23C63.5107 96.23 63.8297 96.1273 64.0864 95.922C64.3504 95.7093 64.5081 95.427 64.5594 95.075H65.5494C65.4541 95.713 65.1901 96.2117 64.7574 96.571C64.3321 96.9303 63.7894 97.11 63.1294 97.11ZM68.4821 94.745C68.4821 95.207 68.6068 95.57 68.8561 95.834C69.1128 96.098 69.4648 96.23 69.9121 96.23C70.3521 96.23 70.7004 96.098 70.9571 95.834C71.2138 95.57 71.3421 95.207 71.3421 94.745V93.205C71.3421 92.743 71.2138 92.38 70.9571 92.116C70.7004 91.852 70.3521 91.72 69.9121 91.72C69.4721 91.72 69.1238 91.852 68.8671 92.116C68.6104 92.38 68.4821 92.743 68.4821 93.205V94.745ZM67.4921 93.205C67.4921 92.8383 67.5471 92.512 67.6571 92.226C67.7744 91.9327 67.9358 91.6833 68.1411 91.478C68.3538 91.2727 68.6068 91.115 68.9001 91.005C69.2008 90.895 69.5381 90.84 69.9121 90.84C70.6601 90.84 71.2504 91.049 71.6831 91.467C72.1158 91.885 72.3321 92.4607 72.3321 93.194V94.745C72.3321 95.1117 72.2771 95.4417 72.1671 95.735C72.0571 96.0283 71.8958 96.2777 71.6831 96.483C71.4778 96.681 71.2248 96.835 70.9241 96.945C70.6234 97.055 70.2861 97.11 69.9121 97.11C69.5381 97.11 69.2008 97.055 68.9001 96.945C68.6068 96.835 68.3538 96.6773 68.1411 96.472C67.9358 96.2667 67.7744 96.0173 67.6571 95.724C67.5471 95.4307 67.4921 95.1043 67.4921 94.745V93.205ZM76.9148 88.97V95.24C76.9148 95.5113 76.9881 95.724 77.1348 95.878C77.2815 96.0247 77.4831 96.098 77.7398 96.098H79.5328V97H77.7398C77.1751 97 76.7315 96.846 76.4088 96.538C76.0861 96.2227 75.9248 95.79 75.9248 95.24V89.872H73.9228V88.97H76.9148ZM83.7855 88.97V95.24C83.7855 95.5113 83.8588 95.724 84.0055 95.878C84.1522 96.0247 84.3538 96.098 84.6105 96.098H86.4035V97H84.6105C84.0458 97 83.6022 96.846 83.2795 96.538C82.9568 96.2227 82.7955 95.79 82.7955 95.24V89.872H80.7935V88.97H83.7855ZM90.5242 97.11C89.7689 97.11 89.1749 96.9047 88.7422 96.494C88.3169 96.0833 88.1042 95.5187 88.1042 94.8V93.15C88.1042 92.4313 88.3169 91.8667 88.7422 91.456C89.1749 91.0453 89.7689 90.84 90.5242 90.84C91.2796 90.84 91.8699 91.0453 92.2952 91.456C92.7279 91.8667 92.9442 92.4313 92.9442 93.15V94.261H89.0942V94.745C89.0942 95.207 89.2189 95.57 89.4682 95.834C89.7249 96.098 90.0769 96.23 90.5242 96.23C90.8542 96.23 91.1402 96.1787 91.3822 96.076C91.6242 95.9733 91.8039 95.823 91.9212 95.625H92.9112C92.7866 96.087 92.5079 96.45 92.0752 96.714C91.6499 96.978 91.1329 97.11 90.5242 97.11ZM91.9542 93.436V93.15C91.9542 92.6953 91.8296 92.3433 91.5802 92.094C91.3309 91.8447 90.9789 91.72 90.5242 91.72C90.0696 91.72 89.7176 91.8447 89.4682 92.094C89.2189 92.3433 89.0942 92.6953 89.0942 93.15V93.436H91.9542ZM97.4829 97.11C97.1089 97.11 96.7716 97.055 96.4709 96.945C96.1776 96.835 95.9246 96.6773 95.7119 96.472C95.5066 96.2667 95.3453 96.0173 95.2279 95.724C95.1179 95.4307 95.0629 95.1043 95.0629 94.745V93.205C95.0629 92.8457 95.1179 92.5193 95.2279 92.226C95.3453 91.9327 95.5066 91.6833 95.7119 91.478C95.9246 91.2727 96.1776 91.115 96.4709 91.005C96.7716 90.895 97.1089 90.84 97.4829 90.84C98.1503 90.84 98.6966 91.0233 99.1219 91.39C99.5546 91.7493 99.8149 92.2443 99.9029 92.875H98.9129C98.8616 92.523 98.7039 92.2443 98.4399 92.039C98.1833 91.8263 97.8643 91.72 97.4829 91.72C97.0429 91.72 96.6946 91.852 96.4379 92.116C96.1813 92.38 96.0529 92.743 96.0529 93.205V94.745C96.0529 95.207 96.1776 95.57 96.4269 95.834C96.6836 96.098 97.0356 96.23 97.4829 96.23C97.8643 96.23 98.1833 96.1273 98.4399 95.922C98.7039 95.7093 98.8616 95.427 98.9129 95.075H99.9029C99.8076 95.713 99.5436 96.2117 99.1109 96.571C98.6856 96.9303 98.1429 97.11 97.4829 97.11ZM101.626 90.95H103.386V89.08H104.376V90.95H106.741V91.852H104.376V95.438C104.376 95.6433 104.438 95.8047 104.563 95.922C104.695 96.0393 104.871 96.098 105.091 96.098H106.631V97H105.091C104.57 97 104.156 96.857 103.848 96.571C103.54 96.285 103.386 95.9073 103.386 95.438V91.852H101.626V90.95ZM108.881 97V96.098H111.081V91.852H109.156V90.95H112.071V96.098H113.886V97H108.881ZM111.301 88.585H111.521C111.734 88.585 111.906 88.6473 112.038 88.772C112.17 88.8967 112.236 89.058 112.236 89.256C112.236 89.454 112.17 89.6117 112.038 89.729C111.906 89.8463 111.734 89.905 111.521 89.905H111.301C111.089 89.905 110.916 89.85 110.784 89.74C110.652 89.6227 110.586 89.4613 110.586 89.256C110.586 89.058 110.652 88.8967 110.784 88.772C110.916 88.6473 111.089 88.585 111.301 88.585ZM116.577 94.745C116.577 95.207 116.702 95.57 116.951 95.834C117.208 96.098 117.56 96.23 118.007 96.23C118.447 96.23 118.795 96.098 119.052 95.834C119.309 95.57 119.437 95.207 119.437 94.745V93.205C119.437 92.743 119.309 92.38 119.052 92.116C118.795 91.852 118.447 91.72 118.007 91.72C117.567 91.72 117.219 91.852 116.962 92.116C116.705 92.38 116.577 92.743 116.577 93.205V94.745ZM115.587 93.205C115.587 92.8383 115.642 92.512 115.752 92.226C115.869 91.9327 116.031 91.6833 116.236 91.478C116.449 91.2727 116.702 91.115 116.995 91.005C117.296 90.895 117.633 90.84 118.007 90.84C118.755 90.84 119.345 91.049 119.778 91.467C120.211 91.885 120.427 92.4607 120.427 93.194V94.745C120.427 95.1117 120.372 95.4417 120.262 95.735C120.152 96.0283 119.991 96.2777 119.778 96.483C119.573 96.681 119.32 96.835 119.019 96.945C118.718 97.055 118.381 97.11 118.007 97.11C117.633 97.11 117.296 97.055 116.995 96.945C116.702 96.835 116.449 96.6773 116.236 96.472C116.031 96.2667 115.869 96.0173 115.752 95.724C115.642 95.4307 115.587 95.1043 115.587 94.745V93.205ZM122.546 97V90.95H123.481V91.995H123.569C123.664 91.6283 123.855 91.346 124.141 91.148C124.434 90.9427 124.797 90.84 125.23 90.84C125.53 90.84 125.802 90.8913 126.044 90.994C126.293 91.0967 126.502 91.2433 126.671 91.434C126.847 91.6173 126.982 91.841 127.078 92.105C127.173 92.3617 127.221 92.6513 127.221 92.974V97H126.231V93.139C126.231 92.677 126.113 92.3177 125.879 92.061C125.644 91.8043 125.318 91.676 124.9 91.676C124.482 91.676 124.148 91.8153 123.899 92.094C123.657 92.3653 123.536 92.7357 123.536 93.205V97H122.546ZM137.189 94.745C137.189 95.207 137.314 95.57 137.563 95.834C137.82 96.098 138.172 96.23 138.619 96.23C139.059 96.23 139.407 96.098 139.664 95.834C139.921 95.57 140.049 95.207 140.049 94.745V93.205C140.049 92.743 139.921 92.38 139.664 92.116C139.407 91.852 139.059 91.72 138.619 91.72C138.179 91.72 137.831 91.852 137.574 92.116C137.317 92.38 137.189 92.743 137.189 93.205V94.745ZM136.199 93.205C136.199 92.8383 136.254 92.512 136.364 92.226C136.481 91.9327 136.643 91.6833 136.848 91.478C137.061 91.2727 137.314 91.115 137.607 91.005C137.908 90.895 138.245 90.84 138.619 90.84C139.367 90.84 139.957 91.049 140.39 91.467C140.823 91.885 141.039 92.4607 141.039 93.194V94.745C141.039 95.1117 140.984 95.4417 140.874 95.735C140.764 96.0283 140.603 96.2777 140.39 96.483C140.185 96.681 139.932 96.835 139.631 96.945C139.33 97.055 138.993 97.11 138.619 97.11C138.245 97.11 137.908 97.055 137.607 96.945C137.314 96.835 137.061 96.6773 136.848 96.472C136.643 96.2667 136.481 96.0173 136.364 95.724C136.254 95.4307 136.199 95.1043 136.199 94.745V93.205ZM142.85 92.457V91.555H144.61V90.51C144.61 90.026 144.76 89.6483 145.061 89.377C145.362 89.1057 145.776 88.97 146.304 88.97H148.075V89.872H146.304C145.835 89.872 145.6 90.0847 145.6 90.51V91.555H148.075V92.457H145.6V97H144.61V92.457H142.85ZM158.571 89.08H159.957L162.047 97H160.991L160.441 94.767H158.01L157.449 97H156.415L158.571 89.08ZM158.219 93.942H160.243L159.473 90.807C159.437 90.653 159.404 90.5137 159.374 90.389C159.345 90.257 159.323 90.1397 159.308 90.037C159.294 89.927 159.279 89.828 159.264 89.74H159.22C159.206 89.828 159.187 89.927 159.165 90.037C159.151 90.1397 159.129 90.257 159.099 90.389C159.07 90.5137 159.037 90.653 159 90.807L158.219 93.942ZM163.77 97V90.95H164.705V91.995H164.793C164.888 91.6283 165.079 91.346 165.365 91.148C165.658 90.9427 166.021 90.84 166.454 90.84C166.755 90.84 167.026 90.8913 167.268 90.994C167.517 91.0967 167.726 91.2433 167.895 91.434C168.071 91.6173 168.207 91.841 168.302 92.105C168.397 92.3617 168.445 92.6513 168.445 92.974V97H167.455V93.139C167.455 92.677 167.338 92.3177 167.103 92.061C166.868 91.8043 166.542 91.676 166.124 91.676C165.706 91.676 165.372 91.8153 165.123 92.094C164.881 92.3653 164.76 92.7357 164.76 93.205V97H163.77ZM170.476 93.15C170.476 92.798 170.523 92.479 170.619 92.193C170.714 91.907 170.85 91.665 171.026 91.467C171.209 91.269 171.429 91.115 171.686 91.005C171.942 90.895 172.228 90.84 172.544 90.84C172.984 90.84 173.358 90.9463 173.666 91.159C173.974 91.3643 174.183 91.6613 174.293 92.05H174.37V90.95H175.305V96.56C175.305 97.2713 175.096 97.825 174.678 98.221C174.26 98.617 173.673 98.815 172.918 98.815H171.433V97.913H172.918C173.358 97.913 173.699 97.7957 173.941 97.561C174.19 97.3263 174.315 96.9927 174.315 96.56V96.34L174.359 95.24H174.293C174.183 95.6287 173.974 95.9293 173.666 96.142C173.358 96.3473 172.984 96.45 172.544 96.45C172.228 96.45 171.942 96.395 171.686 96.285C171.436 96.175 171.22 96.021 171.037 95.823C170.861 95.625 170.721 95.383 170.619 95.097C170.523 94.811 170.476 94.492 170.476 94.14V93.15ZM171.488 94.14C171.488 94.5947 171.612 94.9503 171.862 95.207C172.118 95.4637 172.467 95.592 172.907 95.592C173.347 95.592 173.691 95.4637 173.941 95.207C174.19 94.9503 174.315 94.5947 174.315 94.14V93.15C174.315 92.6953 174.19 92.3397 173.941 92.083C173.691 91.8263 173.347 91.698 172.907 91.698C172.467 91.698 172.118 91.8263 171.862 92.083C171.612 92.3397 171.488 92.6953 171.488 93.15V94.14ZM177.533 90.95H178.523V94.866C178.523 95.7827 178.96 96.241 179.832 96.241C180.72 96.241 181.163 95.7827 181.163 94.866V90.95H182.153V94.866C182.153 95.5847 181.952 96.1383 181.548 96.527C181.152 96.9157 180.58 97.11 179.832 97.11C179.099 97.11 178.531 96.9157 178.127 96.527C177.731 96.131 177.533 95.5773 177.533 94.866V90.95ZM186.846 88.97V95.24C186.846 95.5113 186.919 95.724 187.066 95.878C187.213 96.0247 187.414 96.098 187.671 96.098H189.464V97H187.671C187.106 97 186.663 96.846 186.34 96.538C186.017 96.2227 185.856 95.79 185.856 95.24V89.872H183.854V88.97H186.846ZM190.978 95.24C190.978 94.954 191.025 94.6973 191.121 94.47C191.223 94.2353 191.366 94.0373 191.55 93.876C191.74 93.7147 191.968 93.59 192.232 93.502C192.496 93.414 192.793 93.37 193.123 93.37H194.927V92.875C194.927 92.501 194.802 92.2113 194.553 92.006C194.311 91.7933 193.959 91.687 193.497 91.687C193.159 91.687 192.87 91.7493 192.628 91.874C192.393 91.9987 192.235 92.171 192.155 92.391H191.165C191.267 91.9143 191.528 91.5367 191.946 91.258C192.371 90.9793 192.895 90.84 193.519 90.84C194.267 90.84 194.853 91.016 195.279 91.368C195.704 91.7127 195.917 92.1967 195.917 92.82V97H195.015V95.845H194.927C194.831 96.2337 194.608 96.5417 194.256 96.769C193.904 96.9963 193.475 97.11 192.969 97.11C192.36 97.11 191.876 96.9413 191.517 96.604C191.157 96.2667 190.978 95.812 190.978 95.24ZM193.189 96.296C193.438 96.296 193.669 96.263 193.882 96.197C194.094 96.131 194.278 96.0393 194.432 95.922C194.586 95.7973 194.707 95.6543 194.795 95.493C194.883 95.3317 194.927 95.1557 194.927 94.965V94.14H193.145C192.778 94.14 192.488 94.2353 192.276 94.426C192.07 94.6167 191.968 94.8807 191.968 95.218C191.968 95.5553 192.074 95.8193 192.287 96.01C192.499 96.2007 192.8 96.296 193.189 96.296ZM198.387 90.95H199.322V91.995H199.41C199.506 91.6357 199.704 91.3533 200.004 91.148C200.305 90.9427 200.675 90.84 201.115 90.84C201.753 90.84 202.252 91.0417 202.611 91.445C202.978 91.841 203.161 92.3873 203.161 93.084V93.425H202.171V93.205C202.171 92.7283 202.05 92.3617 201.808 92.105C201.574 91.841 201.236 91.709 200.796 91.709C200.364 91.709 200.019 91.8447 199.762 92.116C199.506 92.38 199.377 92.743 199.377 93.205V97H198.387V90.95ZM211.447 90.95H212.492L213.966 95.229C214.025 95.3977 214.069 95.548 214.098 95.68C214.127 95.8047 214.149 95.911 214.164 95.999C214.179 96.109 214.186 96.2043 214.186 96.285H214.285C214.278 96.2043 214.281 96.109 214.296 95.999C214.311 95.911 214.329 95.8047 214.351 95.68C214.373 95.548 214.413 95.3977 214.472 95.229L215.869 90.95H216.947L214.78 97H213.658L211.447 90.95ZM218.461 95.24C218.461 94.954 218.508 94.6973 218.604 94.47C218.706 94.2353 218.849 94.0373 219.033 93.876C219.223 93.7147 219.451 93.59 219.715 93.502C219.979 93.414 220.276 93.37 220.606 93.37H222.41V92.875C222.41 92.501 222.285 92.2113 222.036 92.006C221.794 91.7933 221.442 91.687 220.98 91.687C220.642 91.687 220.353 91.7493 220.111 91.874C219.876 91.9987 219.718 92.171 219.638 92.391H218.648C218.75 91.9143 219.011 91.5367 219.429 91.258C219.854 90.9793 220.378 90.84 221.002 90.84C221.75 90.84 222.336 91.016 222.762 91.368C223.187 91.7127 223.4 92.1967 223.4 92.82V97H222.498V95.845H222.41C222.314 96.2337 222.091 96.5417 221.739 96.769C221.387 96.9963 220.958 97.11 220.452 97.11C219.843 97.11 219.359 96.9413 219 96.604C218.64 96.2667 218.461 95.812 218.461 95.24ZM220.672 96.296C220.921 96.296 221.152 96.263 221.365 96.197C221.577 96.131 221.761 96.0393 221.915 95.922C222.069 95.7973 222.19 95.6543 222.278 95.493C222.366 95.3317 222.41 95.1557 222.41 94.965V94.14H220.628C220.261 94.14 219.971 94.2353 219.759 94.426C219.553 94.6167 219.451 94.8807 219.451 95.218C219.451 95.5553 219.557 95.8193 219.77 96.01C219.982 96.2007 220.283 96.296 220.672 96.296ZM228.07 88.97V95.24C228.07 95.5113 228.144 95.724 228.29 95.878C228.437 96.0247 228.639 96.098 228.895 96.098H230.688V97H228.895C228.331 97 227.887 96.846 227.564 96.538C227.242 96.2227 227.08 95.79 227.08 95.24V89.872H225.078V88.97H228.07ZM232.554 97V96.098H234.754V91.852H232.829V90.95H235.744V96.098H237.559V97H232.554ZM234.974 88.585H235.194C235.407 88.585 235.579 88.6473 235.711 88.772C235.843 88.8967 235.909 89.058 235.909 89.256C235.909 89.454 235.843 89.6117 235.711 89.729C235.579 89.8463 235.407 89.905 235.194 89.905H234.974C234.761 89.905 234.589 89.85 234.457 89.74C234.325 89.6227 234.259 89.4613 234.259 89.256C234.259 89.058 234.325 88.8967 234.457 88.772C234.589 88.6473 234.761 88.585 234.974 88.585ZM239.26 93.205C239.26 92.8383 239.307 92.5083 239.403 92.215C239.505 91.9217 239.645 91.676 239.821 91.478C239.997 91.2727 240.209 91.115 240.459 91.005C240.708 90.895 240.987 90.84 241.295 90.84C241.742 90.84 242.112 90.9427 242.406 91.148C242.699 91.346 242.893 91.6283 242.989 91.995H243.077C243.069 91.8703 243.062 91.7457 243.055 91.621C243.04 91.511 243.029 91.3973 243.022 91.28C243.022 91.1553 243.022 91.0453 243.022 90.95V88.97H244.012V97H243.077V95.955H242.989C242.893 96.3217 242.699 96.6077 242.406 96.813C242.112 97.011 241.742 97.11 241.295 97.11C240.987 97.11 240.708 97.055 240.459 96.945C240.209 96.835 239.997 96.681 239.821 96.483C239.645 96.2777 239.505 96.0283 239.403 95.735C239.307 95.4417 239.26 95.1117 239.26 94.745V93.205ZM241.669 96.252C242.079 96.252 242.406 96.1163 242.648 95.845C242.897 95.5737 243.022 95.207 243.022 94.745V93.205C243.022 92.743 242.897 92.3763 242.648 92.105C242.406 91.8337 242.079 91.698 241.669 91.698C241.221 91.698 240.873 91.83 240.624 92.094C240.374 92.358 240.25 92.7283 240.25 93.205V94.745C240.25 95.207 240.374 95.5737 240.624 95.845C240.88 96.1163 241.229 96.252 241.669 96.252ZM245.943 95.24C245.943 94.954 245.991 94.6973 246.086 94.47C246.189 94.2353 246.332 94.0373 246.515 93.876C246.706 93.7147 246.933 93.59 247.197 93.502C247.461 93.414 247.758 93.37 248.088 93.37H249.892V92.875C249.892 92.501 249.768 92.2113 249.518 92.006C249.276 91.7933 248.924 91.687 248.462 91.687C248.125 91.687 247.835 91.7493 247.593 91.874C247.359 91.9987 247.201 92.171 247.12 92.391H246.13C246.233 91.9143 246.493 91.5367 246.911 91.258C247.337 90.9793 247.861 90.84 248.484 90.84C249.232 90.84 249.819 91.016 250.244 91.368C250.67 91.7127 250.882 92.1967 250.882 92.82V97H249.98V95.845H249.892C249.797 96.2337 249.573 96.5417 249.221 96.769C248.869 96.9963 248.44 97.11 247.934 97.11C247.326 97.11 246.842 96.9413 246.482 96.604C246.123 96.2667 245.943 95.812 245.943 95.24ZM248.154 96.296C248.404 96.296 248.635 96.263 248.847 96.197C249.06 96.131 249.243 96.0393 249.397 95.922C249.551 95.7973 249.672 95.6543 249.76 95.493C249.848 95.3317 249.892 95.1557 249.892 94.965V94.14H248.11C247.744 94.14 247.454 94.2353 247.241 94.426C247.036 94.6167 246.933 94.8807 246.933 95.218C246.933 95.5553 247.04 95.8193 247.252 96.01C247.465 96.2007 247.766 96.296 248.154 96.296ZM252.781 90.95H254.541V89.08H255.531V90.95H257.896V91.852H255.531V95.438C255.531 95.6433 255.593 95.8047 255.718 95.922C255.85 96.0393 256.026 96.098 256.246 96.098H257.786V97H256.246C255.725 97 255.311 96.857 255.003 96.571C254.695 96.285 254.541 95.9073 254.541 95.438V91.852H252.781V90.95ZM260.862 94.745C260.862 95.207 260.986 95.57 261.236 95.834C261.492 96.098 261.844 96.23 262.292 96.23C262.732 96.23 263.08 96.098 263.337 95.834C263.593 95.57 263.722 95.207 263.722 94.745V93.205C263.722 92.743 263.593 92.38 263.337 92.116C263.08 91.852 262.732 91.72 262.292 91.72C261.852 91.72 261.503 91.852 261.247 92.116C260.99 92.38 260.862 92.743 260.862 93.205V94.745ZM259.872 93.205C259.872 92.8383 259.927 92.512 260.037 92.226C260.154 91.9327 260.315 91.6833 260.521 91.478C260.733 91.2727 260.986 91.115 261.28 91.005C261.58 90.895 261.918 90.84 262.292 90.84C263.04 90.84 263.63 91.049 264.063 91.467C264.495 91.885 264.712 92.4607 264.712 93.194V94.745C264.712 95.1117 264.657 95.4417 264.547 95.735C264.437 96.0283 264.275 96.2777 264.063 96.483C263.857 96.681 263.604 96.835 263.304 96.945C263.003 97.055 262.666 97.11 262.292 97.11C261.918 97.11 261.58 97.055 261.28 96.945C260.986 96.835 260.733 96.6773 260.521 96.472C260.315 96.2667 260.154 96.0173 260.037 95.724C259.927 95.4307 259.872 95.1043 259.872 94.745V93.205ZM267.095 90.95H268.03V91.995H268.118C268.213 91.6357 268.411 91.3533 268.712 91.148C269.012 90.9427 269.383 90.84 269.823 90.84C270.461 90.84 270.959 91.0417 271.319 91.445C271.685 91.841 271.869 92.3873 271.869 93.084V93.425H270.879V93.205C270.879 92.7283 270.758 92.3617 270.516 92.105C270.281 91.841 269.944 91.709 269.504 91.709C269.071 91.709 268.726 91.8447 268.47 92.116C268.213 92.38 268.085 92.743 268.085 93.205V97H267.095V90.95ZM275.868 97.11C275.23 97.11 274.702 96.967 274.284 96.681C273.874 96.3877 273.639 95.999 273.58 95.515H274.625C274.669 95.7277 274.805 95.9 275.032 96.032C275.26 96.164 275.538 96.23 275.868 96.23H276.176C276.572 96.23 276.88 96.1493 277.1 95.988C277.32 95.8193 277.43 95.5957 277.43 95.317C277.43 94.8403 277.093 94.5507 276.418 94.448L275.505 94.316C274.911 94.228 274.468 94.041 274.174 93.755C273.881 93.469 273.734 93.0693 273.734 92.556C273.734 92.0133 273.925 91.5917 274.306 91.291C274.695 90.9903 275.234 90.84 275.923 90.84H276.231C276.525 90.84 276.796 90.8767 277.045 90.95C277.295 91.0233 277.515 91.1297 277.705 91.269C277.896 91.401 278.05 91.5623 278.167 91.753C278.292 91.9363 278.373 92.1417 278.409 92.369H277.364C277.32 92.1783 277.196 92.0243 276.99 91.907C276.785 91.7823 276.532 91.72 276.231 91.72H275.923C275.549 91.72 275.256 91.7933 275.043 91.94C274.838 92.0867 274.735 92.3067 274.735 92.6C274.735 92.8347 274.805 93.0143 274.944 93.139C275.091 93.2563 275.326 93.337 275.648 93.381L276.561 93.513C277.214 93.6083 277.687 93.799 277.98 94.085C278.281 94.371 278.431 94.778 278.431 95.306C278.431 95.8707 278.233 96.3143 277.837 96.637C277.449 96.9523 276.895 97.11 276.176 97.11H275.868ZM287.135 92.457V91.555H288.895V90.51C288.895 90.026 289.045 89.6483 289.346 89.377C289.646 89.1057 290.061 88.97 290.589 88.97H292.36V89.872H290.589C290.119 89.872 289.885 90.0847 289.885 90.51V91.555H292.36V92.457H289.885V97H288.895V92.457H287.135ZM295.215 94.745C295.215 95.207 295.34 95.57 295.589 95.834C295.846 96.098 296.198 96.23 296.645 96.23C297.085 96.23 297.434 96.098 297.69 95.834C297.947 95.57 298.075 95.207 298.075 94.745V93.205C298.075 92.743 297.947 92.38 297.69 92.116C297.434 91.852 297.085 91.72 296.645 91.72C296.205 91.72 295.857 91.852 295.6 92.116C295.344 92.38 295.215 92.743 295.215 93.205V94.745ZM294.225 93.205C294.225 92.8383 294.28 92.512 294.39 92.226C294.508 91.9327 294.669 91.6833 294.874 91.478C295.087 91.2727 295.34 91.115 295.633 91.005C295.934 90.895 296.271 90.84 296.645 90.84C297.393 90.84 297.984 91.049 298.416 91.467C298.849 91.885 299.065 92.4607 299.065 93.194V94.745C299.065 95.1117 299.01 95.4417 298.9 95.735C298.79 96.0283 298.629 96.2777 298.416 96.483C298.211 96.681 297.958 96.835 297.657 96.945C297.357 97.055 297.019 97.11 296.645 97.11C296.271 97.11 295.934 97.055 295.633 96.945C295.34 96.835 295.087 96.6773 294.874 96.472C294.669 96.2667 294.508 96.0173 294.39 95.724C294.28 95.4307 294.225 95.1043 294.225 94.745V93.205ZM301.448 90.95H302.383V91.995H302.471C302.566 91.6357 302.764 91.3533 303.065 91.148C303.366 90.9427 303.736 90.84 304.176 90.84C304.814 90.84 305.313 91.0417 305.672 91.445C306.039 91.841 306.222 92.3873 306.222 93.084V93.425H305.232V93.205C305.232 92.7283 305.111 92.3617 304.869 92.105C304.634 91.841 304.297 91.709 303.857 91.709C303.424 91.709 303.08 91.8447 302.823 92.116C302.566 92.38 302.438 92.743 302.438 93.205V97H301.448V90.95ZM317.268 89.08C318.016 89.08 318.603 89.267 319.028 89.641C319.454 90.015 319.666 90.5247 319.666 91.17C319.666 91.6393 319.531 92.0243 319.259 92.325C318.995 92.6183 318.643 92.7833 318.203 92.82V92.886C318.709 92.9153 319.102 93.095 319.38 93.425C319.666 93.755 319.809 94.2023 319.809 94.767C319.809 95.1117 319.754 95.4233 319.644 95.702C319.534 95.9733 319.373 96.208 319.16 96.406C318.955 96.5967 318.702 96.7433 318.401 96.846C318.101 96.9487 317.763 97 317.389 97H314.947V89.08H317.268ZM315.926 96.098H317.279C317.749 96.098 318.112 95.977 318.368 95.735C318.632 95.493 318.764 95.1593 318.764 94.734C318.764 94.3087 318.632 93.975 318.368 93.733C318.104 93.491 317.741 93.37 317.279 93.37H315.926V96.098ZM315.926 89.982V92.512H317.257C317.675 92.512 318.005 92.402 318.247 92.182C318.497 91.9547 318.621 91.643 318.621 91.247C318.621 90.851 318.5 90.543 318.258 90.323C318.016 90.0957 317.686 89.982 317.268 89.982H315.926ZM322.06 90.95H322.995V91.995H323.083C323.178 91.6357 323.376 91.3533 323.677 91.148C323.978 90.9427 324.348 90.84 324.788 90.84C325.426 90.84 325.925 91.0417 326.284 91.445C326.651 91.841 326.834 92.3873 326.834 93.084V93.425H325.844V93.205C325.844 92.7283 325.723 92.3617 325.481 92.105C325.246 91.841 324.909 91.709 324.469 91.709C324.036 91.709 323.692 91.8447 323.435 92.116C323.178 92.38 323.05 92.743 323.05 93.205V97H322.06V90.95ZM328.392 95.24C328.392 94.954 328.439 94.6973 328.535 94.47C328.637 94.2353 328.78 94.0373 328.964 93.876C329.154 93.7147 329.382 93.59 329.646 93.502C329.91 93.414 330.207 93.37 330.537 93.37H332.341V92.875C332.341 92.501 332.216 92.2113 331.967 92.006C331.725 91.7933 331.373 91.687 330.911 91.687C330.573 91.687 330.284 91.7493 330.042 91.874C329.807 91.9987 329.649 92.171 329.569 92.391H328.579C328.681 91.9143 328.942 91.5367 329.36 91.258C329.785 90.9793 330.309 90.84 330.933 90.84C331.681 90.84 332.267 91.016 332.693 91.368C333.118 91.7127 333.331 92.1967 333.331 92.82V97H332.429V95.845H332.341C332.245 96.2337 332.022 96.5417 331.67 96.769C331.318 96.9963 330.889 97.11 330.383 97.11C329.774 97.11 329.29 96.9413 328.931 96.604C328.571 96.2667 328.392 95.812 328.392 95.24ZM330.603 96.296C330.852 96.296 331.083 96.263 331.296 96.197C331.508 96.131 331.692 96.0393 331.846 95.922C332 95.7973 332.121 95.6543 332.209 95.493C332.297 95.3317 332.341 95.1557 332.341 94.965V94.14H330.559C330.192 94.14 329.902 94.2353 329.69 94.426C329.484 94.6167 329.382 94.8807 329.382 95.218C329.382 95.5553 329.488 95.8193 329.701 96.01C329.913 96.2007 330.214 96.296 330.603 96.296ZM335.538 90.95H340.169V92.061L336.44 96.164C336.52 96.1567 336.608 96.1493 336.704 96.142C336.784 96.1347 336.872 96.131 336.968 96.131C337.063 96.1237 337.162 96.12 337.265 96.12H340.29V97H335.45V95.9L339.201 91.797C339.113 91.8043 339.017 91.808 338.915 91.808C338.834 91.8153 338.739 91.8227 338.629 91.83C338.526 91.83 338.423 91.83 338.321 91.83H335.538V90.95ZM342.485 97V96.098H344.685V91.852H342.76V90.95H345.675V96.098H347.49V97H342.485ZM344.905 88.585H345.125C345.338 88.585 345.51 88.6473 345.642 88.772C345.774 88.8967 345.84 89.058 345.84 89.256C345.84 89.454 345.774 89.6117 345.642 89.729C345.51 89.8463 345.338 89.905 345.125 89.905H344.905C344.693 89.905 344.52 89.85 344.388 89.74C344.256 89.6227 344.19 89.4613 344.19 89.256C344.19 89.058 344.256 88.8967 344.388 88.772C344.52 88.6473 344.693 88.585 344.905 88.585ZM351.743 88.97V95.24C351.743 95.5113 351.816 95.724 351.963 95.878C352.11 96.0247 352.311 96.098 352.568 96.098H354.361V97H352.568C352.003 97 351.56 96.846 351.237 96.538C350.914 96.2227 350.753 95.79 350.753 95.24V89.872H348.751V88.97H351.743ZM356.227 97V96.098H358.427V91.852H356.502V90.95H359.417V96.098H361.232V97H356.227ZM358.647 88.585H358.867C359.079 88.585 359.252 88.6473 359.384 88.772C359.516 88.8967 359.582 89.058 359.582 89.256C359.582 89.454 359.516 89.6117 359.384 89.729C359.252 89.8463 359.079 89.905 358.867 89.905H358.647C358.434 89.905 358.262 89.85 358.13 89.74C357.998 89.6227 357.932 89.4613 357.932 89.256C357.932 89.058 357.998 88.8967 358.13 88.772C358.262 88.6473 358.434 88.585 358.647 88.585ZM362.745 95.24C362.745 94.954 362.793 94.6973 362.888 94.47C362.991 94.2353 363.134 94.0373 363.317 93.876C363.508 93.7147 363.735 93.59 363.999 93.502C364.263 93.414 364.56 93.37 364.89 93.37H366.694V92.875C366.694 92.501 366.57 92.2113 366.32 92.006C366.078 91.7933 365.726 91.687 365.264 91.687C364.927 91.687 364.637 91.7493 364.395 91.874C364.161 91.9987 364.003 92.171 363.922 92.391H362.932C363.035 91.9143 363.295 91.5367 363.713 91.258C364.139 90.9793 364.663 90.84 365.286 90.84C366.034 90.84 366.621 91.016 367.046 91.368C367.472 91.7127 367.684 92.1967 367.684 92.82V97H366.782V95.845H366.694C366.599 96.2337 366.375 96.5417 366.023 96.769C365.671 96.9963 365.242 97.11 364.736 97.11C364.128 97.11 363.644 96.9413 363.284 96.604C362.925 96.2667 362.745 95.812 362.745 95.24ZM364.956 96.296C365.206 96.296 365.437 96.263 365.649 96.197C365.862 96.131 366.045 96.0393 366.199 95.922C366.353 95.7973 366.474 95.6543 366.562 95.493C366.65 95.3317 366.694 95.1557 366.694 94.965V94.14H364.912C364.546 94.14 364.256 94.2353 364.043 94.426C363.838 94.6167 363.735 94.8807 363.735 95.218C363.735 95.5553 363.842 95.8193 364.054 96.01C364.267 96.2007 364.568 96.296 364.956 96.296ZM369.891 97V90.95H370.826V91.995H370.914C371.009 91.6283 371.2 91.346 371.486 91.148C371.779 90.9427 372.142 90.84 372.575 90.84C372.876 90.84 373.147 90.8913 373.389 90.994C373.638 91.0967 373.847 91.2433 374.016 91.434C374.192 91.6173 374.328 91.841 374.423 92.105C374.518 92.3617 374.566 92.6513 374.566 92.974V97H373.576V93.139C373.576 92.677 373.459 92.3177 373.224 92.061C372.989 91.8043 372.663 91.676 372.245 91.676C371.827 91.676 371.493 91.8153 371.244 92.094C371.002 92.3653 370.881 92.7357 370.881 93.205V97H369.891ZM383.324 92.457V91.555H385.084V90.51C385.084 90.026 385.235 89.6483 385.535 89.377C385.836 89.1057 386.25 88.97 386.778 88.97H388.549V89.872H386.778C386.309 89.872 386.074 90.0847 386.074 90.51V91.555H388.549V92.457H386.074V97H385.084V92.457H383.324ZM391.405 94.745C391.405 95.207 391.53 95.57 391.779 95.834C392.036 96.098 392.388 96.23 392.835 96.23C393.275 96.23 393.623 96.098 393.88 95.834C394.137 95.57 394.265 95.207 394.265 94.745V93.205C394.265 92.743 394.137 92.38 393.88 92.116C393.623 91.852 393.275 91.72 392.835 91.72C392.395 91.72 392.047 91.852 391.79 92.116C391.533 92.38 391.405 92.743 391.405 93.205V94.745ZM390.415 93.205C390.415 92.8383 390.47 92.512 390.58 92.226C390.697 91.9327 390.859 91.6833 391.064 91.478C391.277 91.2727 391.53 91.115 391.823 91.005C392.124 90.895 392.461 90.84 392.835 90.84C393.583 90.84 394.173 91.049 394.606 91.467C395.039 91.885 395.255 92.4607 395.255 93.194V94.745C395.255 95.1117 395.2 95.4417 395.09 95.735C394.98 96.0283 394.819 96.2777 394.606 96.483C394.401 96.681 394.148 96.835 393.847 96.945C393.546 97.055 393.209 97.11 392.835 97.11C392.461 97.11 392.124 97.055 391.823 96.945C391.53 96.835 391.277 96.6773 391.064 96.472C390.859 96.2667 390.697 96.0173 390.58 95.724C390.47 95.4307 390.415 95.1043 390.415 94.745V93.205ZM397.638 90.95H398.573V91.995H398.661C398.756 91.6357 398.954 91.3533 399.255 91.148C399.556 90.9427 399.926 90.84 400.366 90.84C401.004 90.84 401.503 91.0417 401.862 91.445C402.229 91.841 402.412 92.3873 402.412 93.084V93.425H401.422V93.205C401.422 92.7283 401.301 92.3617 401.059 92.105C400.824 91.841 400.487 91.709 400.047 91.709C399.614 91.709 399.27 91.8447 399.013 92.116C398.756 92.38 398.628 92.743 398.628 93.205V97H397.638V90.95ZM403.959 90.95H404.74V91.841H404.817C404.846 91.5183 404.949 91.2727 405.125 91.104C405.301 90.928 405.535 90.84 405.829 90.84C406.122 90.84 406.364 90.928 406.555 91.104C406.745 91.2727 406.877 91.5183 406.951 91.841H407.006C407.035 91.5183 407.138 91.2727 407.314 91.104C407.49 90.928 407.724 90.84 408.018 90.84C408.392 90.84 408.681 90.9793 408.887 91.258C409.092 91.5293 409.195 91.907 409.195 92.391V97H408.337V92.391C408.337 92.1343 408.278 91.94 408.161 91.808C408.051 91.6687 407.889 91.599 407.677 91.599C407.229 91.599 407.006 91.8813 407.006 92.446V97H406.148V92.391C406.148 92.1783 406.096 91.995 405.994 91.841C405.898 91.6797 405.73 91.599 405.488 91.599C405.268 91.599 405.095 91.6797 404.971 91.841C404.868 91.9877 404.817 92.1893 404.817 92.446V97H403.959V90.95ZM413.282 97.11C412.644 97.11 412.116 96.967 411.698 96.681C411.288 96.3877 411.053 95.999 410.994 95.515H412.039C412.083 95.7277 412.219 95.9 412.446 96.032C412.674 96.164 412.952 96.23 413.282 96.23H413.59C413.986 96.23 414.294 96.1493 414.514 95.988C414.734 95.8193 414.844 95.5957 414.844 95.317C414.844 94.8403 414.507 94.5507 413.832 94.448L412.919 94.316C412.325 94.228 411.882 94.041 411.588 93.755C411.295 93.469 411.148 93.0693 411.148 92.556C411.148 92.0133 411.339 91.5917 411.72 91.291C412.109 90.9903 412.648 90.84 413.337 90.84H413.645C413.939 90.84 414.21 90.8767 414.459 90.95C414.709 91.0233 414.929 91.1297 415.119 91.269C415.31 91.401 415.464 91.5623 415.581 91.753C415.706 91.9363 415.787 92.1417 415.823 92.369H414.778C414.734 92.1783 414.61 92.0243 414.404 91.907C414.199 91.7823 413.946 91.72 413.645 91.72H413.337C412.963 91.72 412.67 91.7933 412.457 91.94C412.252 92.0867 412.149 92.3067 412.149 92.6C412.149 92.8347 412.219 93.0143 412.358 93.139C412.505 93.2563 412.74 93.337 413.062 93.381L413.975 93.513C414.628 93.6083 415.101 93.799 415.394 94.085C415.695 94.371 415.845 94.778 415.845 95.306C415.845 95.8707 415.647 96.3143 415.251 96.637C414.863 96.9523 414.309 97.11 413.59 97.11H413.282ZM419.372 96.131C419.372 95.845 419.456 95.6177 419.625 95.449C419.801 95.273 420.032 95.185 420.318 95.185C420.604 95.185 420.831 95.273 421 95.449C421.176 95.6177 421.264 95.845 421.264 96.131C421.264 96.4243 421.176 96.6627 421 96.846C420.831 97.022 420.604 97.11 420.318 97.11C420.032 97.11 419.801 97.022 419.625 96.846C419.456 96.6627 419.372 96.4243 419.372 96.131Z" fill="black"/>
</svg>
